<svg viewBox="-3.108108108108108 10.52 106.48648648648648 78.57" version="1.1" xmlns="http://www.w3.org/2000/svg" style="max-height: 500px" width="106.48648648648648" height="78.57">
 <path d="m97.773 38.82c-7.0039-13.383-26.203-22.375-47.773-22.375-21.574 0-40.773 8.9922-47.773 22.375-0.71875 1.3711-2.793 0.28516-2.0742-1.0859 7.3906-14.137 27.426-23.633 49.848-23.633s42.453 9.4961 49.852 23.629c0.72266 1.3906-1.3711 2.4453-2.0781 1.0898zm-58.492 8.4727c0-1.3086 0.23047-2.582 0.69141-3.7891-2.3086-4.6484 3.0312-9.4219 7.3828-6.5938 0.85938-0.21875 1.7461-0.33203 2.6445-0.33203 7.8867 0 13.043 8.2617 9.6797 15.309 0.55078 0.69531 0.87891 1.5742 0.87891 2.5273 0 3.5938-4.3203 5.4219-6.9023 2.957-6.9492 2.5352-14.375-2.6445-14.375-10.078zm18.938 7.1172c0-0.96094-0.78125-1.7422-1.7422-1.7422-0.96094 0-1.7422 0.78125-1.7422 1.7422 0 0.96094 0.78125 1.7422 1.7422 1.7422 0.95703 0 1.7422-0.78125 1.7422-1.7422zm-16.438-13.188c0 1.543 1.2539 2.7969 2.793 2.7969 1.5391 0 2.793-1.2539 2.793-2.7969 0-1.5391-1.2539-2.793-2.793-2.793-1.5391 0-2.793 1.2539-2.793 2.793zm55.383 5.582c0.14063 0.30859 0.14063 0.66406 0 0.97266-2.3516 5.1602-5.9922 9.5859-10.27 13.168 0.78516 1.1328 1.1641 2.4922 1.0703 3.9023-0.20703 3.2383-2.8906 5.668-5.8906 5.7578-0.79688 0.03125-1.4766 0.55859-1.6992 1.3047-1.6211 5.4727-8.1406 8.0547-13.09 4.8789-0.51953-0.33594-1.1953-0.35156-1.8008-0.042968-3.4414 1.75-7.6328-0.011719-8.8242-3.6797-6.2969 0.64844-12.695 0.37109-18.867-0.8125 0.65234 2.2422 1.0742 4.5117 1.0742 5.9961 0 4.2148-3.4297 7.6445-7.6445 7.6445-4.2188 0-7.6445-3.4297-7.6445-7.6445 0-2.0781 0.87109-6.1562 2.3477-9.5664-9.9023-4.1953-18.699-11.266-23.094-20.906-0.14062-0.30859-0.14062-0.66406 0-0.97266 7.3047-16.027 26.836-25.633 47.168-25.633 21.25 0 40.172 10.293 47.164 25.633zm-47.164 17.824c9.5586 0 17.336-7.7773 17.336-17.336 0-9.5586-7.7773-17.336-17.336-17.336s-17.336 7.7773-17.336 17.336c0 9.5586 7.7773 17.336 17.336 17.336zm-22.078-30.145-3.0977 2.3281c-1.2617 0.94531 0.1875 2.7852 1.4062 1.8711l3.3477-2.5156h4.1953c0.57031-0.82812 1.1992-1.6133 1.8906-2.3438h-5.4727l-0.38672-2.4453c-0.24219-1.5273-2.5586-1.1641-2.3125 0.36328zm44.27 0.78125 1.6406-1.6602c1.0898-1.1016-0.58203-2.7461-1.668-1.6445l-1.8438 1.8633h-5.9844c0.6875 0.73047 1.3203 1.5117 1.8906 2.3438h3.8008l1.0586 2.5547c0.58594 1.4258 2.7617 0.55078 2.1641-0.89453zm-6.0234 23.23h6.5742c0.39844 0 0.77344-0.20312 0.98828-0.54297l1.793-2.8398 2.1953 0.67188c1.4766 0.45312 2.168-1.7891 0.68359-2.2422l-3.0508-0.92969c-0.50391-0.15234-1.0508 0.046875-1.332 0.49219l-1.9258 3.0469h-4.5273c-0.41016 0.81641-0.87891 1.6016-1.3984 2.3438zm14.645-8.0547c0.19141 0.125 0.41406 0.19141 0.64062 0.19141h3.6602c0.57031 0 1.0547-0.40625 1.1523-0.96875l0.74609-4.2734c0.26562-1.5234-2.0391-1.9336-2.3086-0.40234l-0.57812 3.3008h-2.3281l-2.3281-1.5195 2.0273-2.6328c0.21875-0.28516 0.29297-0.65625 0.20312-1.0039l-0.74609-2.9102c-0.38281-1.4961-2.6523-0.92188-2.2695 0.58203l0.60156 2.3555c-2.2734 2.957-2.1836 2.8242-2.2578 2.9609h-7.3945c0.046876 0.75 0.046876 1.5469 0 2.3438h8.1406zm-65.93 0.19141h3.6602c0.22656 0 0.44922-0.066406 0.64062-0.19141l3.0312-1.9766h8.1406c-0.046875-0.75391-0.046875-1.5508 0-2.3438h-7.3945c-0.074219-0.13281 0.035156 0.023437-2.4648-3.2266l-0.95703-3.6289c-0.39062-1.4961-2.6562-0.90234-2.2656 0.59766l1.0156 3.8594c0.039063 0.14844 0.10938 0.28906 0.20313 0.41406l2.0273 2.6328-2.3281 1.5195h-3.3086c-1.5469 0-1.5469 2.3438 0 2.3438zm8.8164 10.449 3.9102-2.5859h6.2227c-0.51953-0.74219-0.98828-1.5273-1.3984-2.3438h-4.4766c-0.070312-0.097656-0.15625-0.1875-0.25781-0.26172l-2.9492-2.1719c-0.51953-0.38281-1.2539-0.26953-1.6367 0.24609-0.38281 0.51953-0.27344 1.2539 0.24609 1.6367l2.0664 1.5234-3.0195 1.9961c-0.53906 0.35547-0.6875 1.082-0.33203 1.625 0.22656 0.33984 0.59766 0.52344 0.97656 0.52344 0.22266 0.007813 0.44922-0.054687 0.64844-0.1875zm-15.617-8.9141c2.0039-2.7344 2.0039-7.0117 0-9.75-1.043 1.4492-2.0664 3.1523-2.8906 4.875 0.8125 1.707 1.8359 3.4102 2.8906 4.875zm23.141 13.461c-2.2734 0-5.3047 8.8203-5.3047 12.625 0 2.9258 2.3789 5.3047 5.3047 5.3047 2.9219 0 5.3047-2.3789 5.3047-5.3047-0.003906-3.793-3.043-12.625-5.3047-12.625zm50.59-5.0156c-1.8984 0-3.4883 1.3594-3.7812 3.2344-0.15234 0.91797-1.2227 1.2891-1.9141 0.71094-3.2656-2.7617-8.3711-1.6016-10.031 2.4727-0.26563 0.64453-1.0195 0.91406-1.625 0.59766-3.3164-1.7266-6.9688 1.7617-5.3984 5.1523 0.95312 2.0703 3.4102 2.8711 5.3672 1.8789 1.293-0.66016 2.8828-0.63672 4.1289 0.16016 3.5938 2.3164 8.3867 0.44922 9.5781-3.5742 0.50391-1.707 2.0508-2.9062 3.8438-2.9805l0.050781-0.003906c1.9336-0.10156 3.6094-1.7539 3.6094-3.8281-0.003906-2.125-1.7266-3.8203-3.8281-3.8203zm12.992-13.32c-0.80078-1.6758-1.8555-3.4375-2.8906-4.875-0.95312 1.3047-1.5039 3.043-1.5039 4.875s0.54688 3.5703 1.5039 4.875c1.0508-1.457 2.0703-3.1523 2.8906-4.875z"/>
<text fill="#000000" font-family="Arbeit Regular, Helvetica, Arial-Unicode, Arial, Sans-serif" font-weight="bold" font-size="5.0" y="117.5" x="0.0">Created by Ferifrey</text><text fill="#000000" font-family="Arbeit Regular, Helvetica, Arial-Unicode, Arial, Sans-serif" font-weight="bold" font-size="5.0" y="122.5" x="0.0">from Noun Project</text></svg>