<svg viewBox="7.972972972972974 20.78 87.29729729729729 54.81" version="1.1" xmlns="http://www.w3.org/2000/svg" style="max-height: 500px" width="87.29729729729729" height="54.81">
 <g>
  <path d="m91.766 49.285c-13.512-18.23-27.637-27.102-42.039-26.41-22.68 1.1172-37.504 25.457-38.121 26.492-0.20312 0.33984-0.1875 0.76953 0.042969 1.0938 10.617 14.914 22.77 22.711 36.125 23.168 0.42578 0.015625 0.84375 0.019532 1.2656 0.019532 23.438 0 41.906-22.172 42.695-23.133 0.28906-0.35547 0.30078-0.86328 0.03125-1.2305zm-43.934 22.344c-12.535-0.43359-24.027-7.7617-34.168-21.781 2.3477-3.6328 16.391-24.004 36.164-24.973 13.512-0.66016 26.91 7.7344 39.848 24.965-3.1797 3.6055-20.875 22.508-41.844 21.789z"/>
  <path d="m50.535 28.809c-7.2305 0-13.539 3.9805-16.887 9.8555-0.015626 0.023438-0.035157 0.035157-0.046876 0.058594-0.007812 0.011719-0.003906 0.027344-0.011718 0.039063-1.5742 2.8086-2.4844 6.0352-2.4844 9.4805 0 10.715 8.7188 19.434 19.434 19.434 10.715 0 19.434-8.7188 19.434-19.434-0.003906-10.715-8.7227-19.434-19.438-19.434zm-16.207 25.809c-0.78125-1.9766-1.2227-4.125-1.2227-6.375 0-2.7031 0.63672-5.2539 1.7383-7.5352 1.3672 1.3281 2.2734 3.9023 2.2734 6.7344-0.003907 3.1836-1.1602 6.0703-2.7891 7.1758zm0.83594 1.832c2.3633-1.4023 3.9492-4.9219 3.9492-9.0078 0-3.6328-1.2812-6.8984-3.2734-8.5352 0.60156-0.94141 1.2891-1.8203 2.0547-2.6289 2.1133 0.95703 5.3906 5.7812 5.3906 11.648 0 6.4922-3.7695 11.473-5.8438 11.789-0.875-1-1.6445-2.0859-2.2773-3.2656zm29.434-13.445c-0.28516-0.25391-0.64844-0.32812-1-0.1875-0.070312-0.019531-0.24219-0.16797-0.30859-0.36719-0.089843-0.26172-0.10937-0.59375-0.12891-0.94922-0.019531-0.32422-0.042968-0.64844-0.10156-0.96875-0.19922-1.0508-0.98438-2.1953-2.2422-2.2266-0.55469-0.03125-1.0117 0.42187-1.0273 0.97266-0.011718 0.55469 0.42188 1.0117 0.97266 1.0234 0.070312 0.019531 0.26562 0.25 0.32812 0.59766 0.042968 0.23828 0.058594 0.48047 0.070312 0.72266 0.027344 0.44141 0.058594 0.94531 0.22656 1.457 0.21484 0.64453 0.70312 1.2227 1.2891 1.5156-0.089843 0.57422-0.10547 1.2031 0.10156 1.832 0.21094 0.64453 0.71094 1.1992 1.3164 1.5117-0.027344 0.015625-0.054688 0.035156-0.078125 0.042969-0.0625 0.019531-0.19141 0.027343-0.3125 0.039062-0.35547 0.027344-0.84766 0.0625-1.2969 0.39453-0.43359 0.31641-0.66797 0.82422-0.6875 1.3477-0.11719 0-0.32422-0.074219-0.48828-0.24219-0.25391-0.26172-0.44141-0.66406-0.64062-1.0859l-0.17969-0.375c-0.29297-0.59766-0.78906-1.3984-1.6484-1.8281-0.16016-0.33984-0.5-0.5625-0.90234-0.54297-0.019531-0.011719-0.0625-0.058594-0.085937-0.12109-0.078126-0.22656-0.046876-0.57812-0.015626-0.91406 0.042969-0.47266 0.10156-1.1211-0.13281-1.7656-0.13281-0.36719-0.33203-0.65625-0.50781-0.91016-0.12891-0.1875-0.26172-0.38281-0.28516-0.50781-0.019531-0.089844 0-0.25781 0.015625-0.42188 0.023438-0.23438 0.042969-0.47266 0.027344-0.70312-0.078125-1.3047-1.0234-2.168-1.9023-2.875-0.42969-0.34766-1.0586-0.27734-1.4062 0.15234-0.34766 0.42969-0.27734 1.0586 0.15234 1.4062 0.54688 0.4375 1.1289 0.94922 1.1602 1.4414v0.011719c-0.050781 0.027343-0.10156 0.035156-0.14844 0.074219-0.058594 0.003906-0.26172-0.019532-0.65625-0.25-0.59766-0.35156-1.4961-0.87891-2.5-0.51953-0.33984 0.12109-0.60547 0.32031-0.82031 0.48047-0.003906 0-0.003906 0.003906-0.007812 0.003906 0-0.003906-0.003906-0.007812-0.003906-0.007812-0.074219-0.16016-0.17188-0.35938-0.29688-0.55469 0.40234-1.1836-0.046874-2.6133-1.1133-3.3047-0.10938-0.070313-0.22656-0.13672-0.34766-0.19922-0.0625-0.035156-0.14844-0.078125-0.20312-0.11328-0.003906-0.050782 0-0.11719 0-0.17578 0-0.13672 0-0.27344-0.011719-0.40625-0.042969-0.51172-0.29688-0.98828-0.67578-1.2773-0.32031-0.24219-0.71094-0.33594-1.0938-0.26172-0.54297 0.10547-0.89844 0.62891-0.79688 1.168 0.0625 0.33594 0.28906 0.60156 0.57812 0.72656v0.027344c-0.003906 0.30078-0.007812 0.71094 0.21484 1.1328 0.26953 0.51953 0.73438 0.76953 1.043 0.9375 0.070313 0.039062 0.14453 0.074218 0.20703 0.11719 0.25391 0.16406 0.38281 0.51953 0.34375 0.83203-0.12109 0.019532-0.23828 0.042969-0.33594 0.066406l-0.078125 0.015626c-0.20703-0.27734-0.55859-0.43359-0.91797-0.39063-0.54687 0.066407-0.9375 0.56641-0.87109 1.1133 0.046875 0.38281 0.24609 0.72656 0.56641 0.96094 0.38672 0.28516 0.92578 0.40234 1.457 0.3125 0.09375-0.015625 0.1875-0.035156 0.28516-0.058593 0.042969-0.011719 0.09375-0.019532 0.14453-0.03125 0.03125 0.0625 0.0625 0.13281 0.089844 0.19141 0.18359 0.40234 0.48828 1.0703 1.2656 1.2812 0.80469 0.21875 1.4062-0.23438 1.7695-0.50781 0.09375-0.070312 0.23828-0.17969 0.29297-0.19922 0.11719-0.050781 0.64453 0.26563 0.84375 0.37891 0.64453 0.375 1.1875 0.50781 1.625 0.50781 0.14063 0 0.26953-0.011719 0.38672-0.035156 0.11328 0.22266 0.24609 0.42188 0.36328 0.59375 0.11719 0.17188 0.23047 0.33594 0.27734 0.46484 0.082032 0.22266 0.046875 0.58203 0.019532 0.90234-0.039063 0.41797-0.074219 0.92578 0.042968 1.4492-0.125-0.035156-0.21484-0.074219-0.23438-0.085937-0.09375-0.54688-0.60938-0.91406-1.1523-0.82031-0.54688 0.09375-0.91016 0.60938-0.82031 1.1523 0.18359 1.0781 1.1719 1.6445 2.1484 1.7734-0.26562 0.37109-0.51953 0.71484-0.77734 0.80469-0.17969 0.0625-0.46484 0.042969-0.76953 0.019531-0.12891-0.007812-0.25781-0.019531-0.38281-0.023437-0.98438-0.023438-1.7969 0.29688-2.2344 0.9375-0.26172 0.38281-0.33984 0.78906-0.39453 1.0898-0.011719 0.0625-0.023438 0.12891-0.046875 0.21094-0.39062 0.078125-0.71484 0.38672-0.79297 0.80078-0.097656 0.54297 0.26172 1.0625 0.80469 1.1641 0.089844 0.015625 0.17969 0.023437 0.26953 0.023437 0.73438 0 1.3984-0.55078 1.6367-1.3984 0.039063-0.14062 0.066407-0.28906 0.097657-0.4375 0.019531-0.11328 0.050781-0.28125 0.066406-0.3125 0.027344-0.023438 0.19141-0.085938 0.52344-0.078125 0.10547 0.003906 0.21094 0.011718 0.3125 0.019531 0.44531 0.03125 1.0039 0.070313 1.5703-0.12891 0.86328-0.30469 1.3672-1.0039 1.7695-1.5703l0.17969-0.24609c0.24219-0.32812 0.46484-0.49609 0.60547-0.55469 0.14063 0.16406 0.28125 0.38281 0.42578 0.67578l0.16016 0.33984c0.21875 0.46875 0.47266 0.99219 0.86719 1.457-0.23828 0.089844-0.47656 0.19531-0.69922 0.36328-0.49609 0.36719-0.78906 0.86328-1.0195 1.2656-0.15234 0.26172-0.29688 0.51172-0.45313 0.64453-0.21484 0.18359-0.59375 0.28125-0.99609 0.38281-0.21484 0.054688-0.43359 0.10938-0.64453 0.17969-1.1016 0.36328-2.1367 1.2969-1.9648 2.5703 0.066406 0.50391 0.49609 0.87109 0.99219 0.87109 0.042969 0 0.089844-0.003906 0.13281-0.007813 0.54688-0.074218 0.92969-0.57031 0.85547-1.1172 0.023438-0.085937 0.25391-0.30078 0.60547-0.41797 0.16797-0.054687 0.33984-0.097656 0.51562-0.14453 0.17188-0.042969 0.35156-0.09375 0.53125-0.14844 0.046875 0.19141 0.10547 0.37891 0.16797 0.56641 0.050781 0.14844 0.10547 0.29688 0.12891 0.44922 0.074219 0.44922-0.14453 1.0039-0.375 1.5938l-0.070312 0.17578c-0.011719 0.027344-0.023438 0.0625-0.03125 0.09375-0.46484-0.015625-1.0312 0.09375-1.7266 0.46094l-0.13672 0.074219c-0.35547 0.19141-0.78906 0.42578-1.0156 0.36719-0.054687-0.015626-0.15234-0.066407-0.25-0.11328-0.22656-0.11328-0.51172-0.25781-0.87891-0.30859-0.59766-0.082031-1.2031 0.10938-1.8438 0.58594l-0.23438 0.18359c-0.17188 0.13672-0.33594 0.26562-0.51172 0.32812-0.32031-0.34375-0.84375-0.42188-1.2539-0.16797-0.46875 0.28906-0.61719 0.90625-0.32812 1.375 0.32031 0.51953 0.91016 0.8125 1.5469 0.8125 0.24219 0 0.48828-0.042969 0.73047-0.12891 0.44531-0.16016 0.78516-0.43359 1.0625-0.65234l0.19531-0.15234c0.25781-0.19141 0.36719-0.20312 0.36328-0.20703 0.042969 0.007813 0.16797 0.070313 0.25 0.11328 0.16797 0.085938 0.37891 0.19141 0.62891 0.26172 0.98047 0.26953 1.8438-0.19531 2.4805-0.53125l0.12891-0.070313c0.16797-0.089843 0.29688-0.13672 0.41016-0.17187 0.003906 0.023437-0.003906 0.046874 0 0.070312-1.0117 0.76953-1.707 1.9375-1.8672 3.2031-0.070313 0.54688 0.31641 1.0508 0.86328 1.1172 0.042969 0.003907 0.085938 0.007813 0.12891 0.007813 0.49609 0 0.92578-0.36719 0.99219-0.87109 0.11328-0.87891 0.69141-1.7031 1.4805-2.1094 0.47266-0.24219 0.67578-0.8125 0.45703-1.3008-0.17969-0.39844 0.023437-1.0312 0.22266-1.5391l0.066406-0.16797c0.30859-0.78125 0.65625-1.6641 0.48828-2.6641-0.042969-0.25781-0.125-0.50781-0.20703-0.75391-0.042968-0.12891-0.089844-0.25391-0.11719-0.38672-0.023438-0.10156-0.019531-0.17188-0.019531-0.20312 0.24609-0.29297 0.28906-0.6875 0.15234-1.0234 0.023438-0.039063 0.046875-0.078125 0.070313-0.11719 0.16016-0.27734 0.31641-0.53906 0.48047-0.66016 0.18359-0.13672 0.51953-0.19531 0.87109-0.26172 0.074219-0.015625 0.14844-0.03125 0.22656-0.046875 0.054687 0.16406 0.13281 0.32422 0.23438 0.46484 0.18359 0.25 0.39453 0.4375 0.56641 0.58984 0.10156 0.089844 0.25 0.22266 0.27344 0.26953 0 0.003906 0.019531 0.14062-0.17188 0.48438l-0.14453 0.23047c-0.21875 0.35938-0.48438 0.80859-0.57422 1.3633-0.089843 0.55078 0.054688 1.1367 0.37891 1.5703 0.28125 0.37891 0.68359 0.61328 1.1328 0.66797 0.042969 0.007813 0.082031 0.007813 0.12109 0.007813 0.49609 0 0.92969-0.37109 0.99219-0.87891 0.058594-0.47266-0.22266-0.90625-0.64844-1.0625 0.03125-0.17578 0.16797-0.40234 0.3125-0.64453l0.16797-0.28906c0.45703-0.8125 0.55469-1.5547 0.28516-2.2148-0.19531-0.48438-0.55078-0.79688-0.80859-1.0234-0.007812-0.007812-0.019531-0.015624-0.027344-0.023437 0.14063-0.13672 0.24219-0.3125 0.28516-0.51953 0.042969-0.21094 0-0.41406-0.082031-0.60156 0.089843-0.17578 0.16797-0.35938 0.20312-0.55859 0.015626-0.078126 0.019532-0.15625 0.015626-0.23438 0.035156-0.003906 0.074218-0.007812 0.10547-0.007812 0.20703-0.015625 0.46484-0.035156 0.73438-0.11328 0.69922-0.20703 1.1328-0.70312 1.4844-1.1016 0.10938-0.12109 0.21484-0.24609 0.33203-0.35547 0.40234-0.37109 1.0195-0.50781 1.5547-0.375 0 0.058593 0.007813 0.11719 0.007813 0.17578 0 9.6133-7.8203 17.434-17.434 17.434-4.4297 0-8.4648-1.6758-11.543-4.4062 3.1562-1.5859 6.293-7.082 6.293-13.348 0-5.8086-2.9258-11.176-5.8828-13.078 3.0234-2.5156 6.9023-4.0312 11.133-4.0312 8.8555 0 16.176 6.6445 17.273 15.203-0.5625-0.035156-1.1289 0.0625-1.6523 0.26953-0.29688-0.20703-0.69141-0.25391-1.0312-0.074219-0.09375 0.011719-0.36719-0.15625-0.44922-0.41016-0.15234-0.46484-0.015625-1.0586 0.18359-1.7852 0.10938-0.35156 0.027344-0.74609-0.25391-1z"/>
 </g>
<text fill="#000000" font-family="Arbeit Regular, Helvetica, Arial-Unicode, Arial, Sans-serif" font-weight="bold" font-size="5.0" y="117.5" x="0.0">Created by Brand Mania</text><text fill="#000000" font-family="Arbeit Regular, Helvetica, Arial-Unicode, Arial, Sans-serif" font-weight="bold" font-size="5.0" y="122.5" x="0.0">from Noun Project</text></svg>