<svg viewBox="7.972972972972974 23.75 80.27027027027027 51.03" version="1.1" xmlns="http://www.w3.org/2000/svg" style="max-height: 500px" width="80.27027027027027" height="51.03">
 <g>
  <path d="m45.867 62.105c-0.30469-0.5625-0.35547-1.2695-0.14453-1.8203l-0.89453-1.0117-0.09375 0.13672c0.3125 0.55078 0.41797 1.2344 0.27344 1.9375-0.035156 0.17578-0.085937 0.34766-0.14844 0.50781 0.26172 0.15625 0.49609 0.32812 0.70703 0.48047l0.125 0.089843c0.15234 0.10938 0.33203 0.17969 0.48047 0.21094-0.042969-0.070313-0.089844-0.14844-0.12891-0.21094-0.054688-0.10938-0.11719-0.21484-0.17578-0.32031z"/>
  <path d="m52.656 55.312c-0.17578-0.30859-0.17578-0.6875 0-0.99609 0.015625-0.027344 0.019531-0.10938-0.019531-0.19922-0.039063-0.09375-0.10156-0.14453-0.13281-0.15234-0.027344-0.007813-0.10938 0.011718-0.1875 0.074218s-0.11328 0.13672-0.10938 0.16406c0.015625 0.42188-0.23047 0.78906-0.59375 0.94922l-0.14062 1.5977c-0.027344 0.30469-0.023437 0.49219 0.003906 0.55859-0.003906-0.027344 0.19922-0.015625 0.49219-0.10547l0.29297-0.10156c0.49609-0.17578 1.1094-0.39453 1.8164-0.26562 0.16406 0.03125 0.32422 0.085937 0.47656 0.15625l0.17187-0.29688c0.17188-0.29687 0.33984-0.58594 0.49609-0.875l-1.707-0.011718c-0.35547 0.003906-0.68359-0.1875-0.85938-0.49609z"/>
  <path d="m50.266 41.355c0.042969 0 0.085937 0.003906 0.13281 0.007812 0.54687 0.070313 0.93359 0.57422 0.86328 1.1211-0.007813 0.050781 0.027343 0.14062 0.10547 0.21875 0.078124 0.082031 0.18359 0.12109 0.21875 0.10938 0.050781-0.007812 0.12891-0.0625 0.1875-0.16016 0.058593-0.097656 0.070312-0.19141 0.050781-0.23828-0.19531-0.50391 0.042969-1.0703 0.53906-1.2812 0.49219-0.21094 1.0664 0.007813 1.3008 0.49219 0.074219 0.15625 0.17969 0.30078 0.30469 0.42188l-0.17188-1.0625c-0.042969-0.27344 0.027344-0.55078 0.19531-0.76953-0.80469-0.42578-1.4297-1.1836-1.668-2.0703-0.015625-0.050781-0.023438-0.097656-0.035157-0.14844-0.50781 0.13672-0.96875 0.19922-1.2656 0.23828l-0.6875 0.09375c-0.38281 0.050781-1.0859 0.14844-1.3125 0.4375 0.21094 0.023437 0.41016 0.10938 0.57031 0.25781 0.23828 0.21875 0.35547 0.53906 0.31641 0.85937l-0.17188 1.418 0.19531 0.007813c0.09375 0.003906 0.18359 0.019531 0.26953 0.046875h0.0625z"/>
  <path d="m40.641 48.242c0-5.8633-3.2734-10.691-5.3906-11.648-0.76562 0.80859-1.4531 1.6875-2.0547 2.6289 1.9883 1.6406 3.2734 4.9062 3.2734 8.5352 0 4.0859-1.5859 7.6055-3.9492 9.0078 0.63281 1.1797 1.4023 2.2656 2.2773 3.2656 2.0781-0.31641 5.8438-5.2969 5.8438-11.789z"/>
  <path d="m32.199 41.027c-1.1016 2.2852-1.7383 4.8359-1.7383 7.5352 0 2.2539 0.44531 4.3984 1.2266 6.3789 1.6289-1.1094 2.7852-3.9961 2.7852-7.1797 0-2.832-0.90625-5.4062-2.2734-6.7344z"/>
  <path d="m47.188 25.195c-19.777 0.96875-33.816 21.34-36.164 24.973 10.141 14.023 21.633 21.352 34.168 21.781 20.953 0.73438 38.66-18.18 41.848-21.793-12.941-17.227-26.348-25.621-39.852-24.961zm0.70703 42.801c-10.715 0-19.434-8.7188-19.434-19.434 0-3.4414 0.91016-6.6719 2.4844-9.4805 0.007813-0.011719 0.003907-0.027343 0.011719-0.039062 0.011719-0.023438 0.035157-0.035157 0.046875-0.058594 3.3477-5.875 9.6562-9.8555 16.887-9.8555 10.715 0 19.434 8.7188 19.434 19.434s-8.7188 19.434-19.43 19.434z"/>
  <path d="m47.895 31.133c-4.2305 0-8.1094 1.5156-11.133 4.0312 2.957 1.9023 5.8828 7.2695 5.8828 13.078 0 6.2656-3.1367 11.762-6.293 13.348 3.0781 2.7305 7.1133 4.4023 11.543 4.4023 9.6133 0 17.434-7.8203 17.434-17.434-0.003906-9.6055-7.8242-17.426-17.434-17.426zm0.30859 32.289c-0.17578 0.54297-0.57422 0.94531-1.125 1.1289-0.22656 0.074219-0.46484 0.10938-0.69922 0.10938-0.68359 0-1.3711-0.26953-1.8477-0.60938l-0.13281-0.097656c-0.51172-0.37109-0.84766-0.57031-1-0.59375-0.097657 0.035156-0.19531 0.066406-0.29688 0.09375-0.49609 0.11328-0.99219-0.15234-1.168-0.625-0.17578-0.47266 0.03125-1.0039 0.47656-1.2344 0.12109-0.0625 0.24609-0.11328 0.36719-0.14844 0.14453-0.10547 0.23828-0.30859 0.27734-0.49219 0.050781-0.23828 0.019531-0.53906-0.16016-0.67188-0.4375-0.32031-0.53906-0.92969-0.23047-1.375l1.2109-1.7578c0.3125-0.45313 0.9375-0.57031 1.3906-0.25781 0.089844 0.0625 0.16406 0.13281 0.22656 0.21484 0.10937 0.054687 0.21094 0.13281 0.30078 0.23047l2.0352 2.3047c0.24609 0.28125 0.31641 0.67578 0.18359 1.0234-0.078125 0.19922-0.21484 0.36328-0.38672 0.47266 0.003906 0.007812 0.003906 0.011719 0.007812 0.019531 0.042969 0.078125 0.09375 0.16016 0.14063 0.24219 0.27734 0.46875 0.69922 1.1797 0.42969 2.0234zm0.42188-20.16c-0.27734-0.011719-0.5625-0.14062-0.74609-0.35156-0.17969-0.21484-0.28906-0.49219-0.25391-0.76953l0.20312-1.6758c-0.17188-0.12891-0.32422-0.28906-0.45312-0.48438-0.47266-0.73047-0.46484-1.707 0.023438-2.3711 0.71875-0.98438 1.9375-1.1484 2.668-1.25l0.69141-0.09375c0.85156-0.11719 1.4688-0.28906 1.8594-0.52734 0.19531-0.36719 0.45703-0.69531 0.77734-0.96875 0.34375-0.28906 0.83984-0.3125 1.2109-0.058593 0.37109 0.25391 0.52344 0.72656 0.37891 1.1484-0.15625 0.45703-0.41016 0.82422-0.71875 1.1211-0.058594 0.21484-0.0625 0.44531-0.007813 0.65234 0.125 0.46484 0.55859 0.86328 1.0312 0.94922 0.375 0.066407 0.68359 0.34375 0.78516 0.71094l0.34375 1.2031c0.082031 0.28516 0.03125 0.59375-0.13672 0.83984-0.09375 0.13281-0.21094 0.23828-0.35156 0.31641l0.27344 1.6953c0.046875 0.27734-0.027344 0.5625-0.20312 0.78125s-0.43359 0.35547-0.71484 0.375c-0.71094 0.042969-1.418-0.14062-2.0234-0.49609-0.37109 0.4375-0.88672 0.73047-1.4336 0.79688-0.082031 0.011718-0.16406 0.015624-0.24609 0.015624-0.59375 0-1.1875-0.25391-1.6328-0.70312-0.23828-0.23828-0.41797-0.52344-0.53516-0.82422zm9.1211 11.965c-0.36328 0.875-0.82812 1.6797-1.2773 2.4609l-0.91016 1.5859c-0.070313 0.16797-0.16797 0.32812-0.29688 0.46484-0.19531 0.21094-0.46484 0.31641-0.73047 0.31641-0.20703 0-0.41797-0.0625-0.59375-0.19531-0.33203-0.24609-0.47266-0.66406-0.375-1.0469-0.16406 0.019531-0.39844 0.10547-0.62891 0.1875-0.11719 0.039062-0.23438 0.082031-0.35547 0.12109-1.0859 0.34375-2.0664 0.14453-2.6367-0.52344-0.57422-0.67969-0.5-1.5469-0.45703-2.0117l0.25391-2.8984c0.046875-0.53125 0.48047-0.95312 1.0312-0.91016 0.089844-0.10156 0.1875-0.19531 0.29297-0.28125 0.55859-0.44922 1.2773-0.625 1.9297-0.46484 0.65234 0.16016 1.207 0.64844 1.4883 1.3086 0.066406 0.16016 0.11719 0.32422 0.14844 0.49219l2.207 0.015625c0.33203 0.003906 0.64453 0.17188 0.82812 0.44922 0.17578 0.26953 0.21094 0.62109 0.082032 0.92969z"/>
 </g>
<text fill="#000000" font-family="Arbeit Regular, Helvetica, Arial-Unicode, Arial, Sans-serif" font-weight="bold" font-size="5.0" y="117.5" x="0.0">Created by Brand Mania</text><text fill="#000000" font-family="Arbeit Regular, Helvetica, Arial-Unicode, Arial, Sans-serif" font-weight="bold" font-size="5.0" y="122.5" x="0.0">from Noun Project</text></svg>